<svg xmlns="http://www.w3.org/2000/svg" width="900" height="840" viewBox="0 0 900 840">
  <defs>
    <clipPath id="cc">
      <rect x="4" y="4" width="892" height="832" rx="16"/>
    </clipPath>
    
    <filter id="shadow" x="-5%" y="-5%" width="110%" height="110%">
      <feDropShadow dx="0" dy="8" stdDeviation="16" flood-color="#000000" flood-opacity="0.35"/>
    </filter>
    
    <filter id="art-shadow" x="-20%" y="-20%" width="140%" height="140%">
      <feDropShadow dx="0" dy="4" stdDeviation="6" flood-color="#000000" flood-opacity="0.4"/>
    </filter>
    
    <linearGradient id="g1" x1="0%" y1="0%" x2="100%" y2="100%">
      <stop offset="0%" stop-color="#c4868a"/>
      <stop offset="100%" stop-color="#9a4e52"/>
    </linearGradient>
    <linearGradient id="g2" x1="0%" y1="0%" x2="100%" y2="100%">
      <stop offset="0%" stop-color="#8c8a5a"/>
      <stop offset="100%" stop-color="#606040"/>
    </linearGradient>
    <linearGradient id="g3" x1="0%" y1="0%" x2="100%" y2="100%">
      <stop offset="0%" stop-color="#2a1e28"/>
      <stop offset="100%" stop-color="#4a2845"/>
    </linearGradient>
    <linearGradient id="g4" x1="0%" y1="0%" x2="100%" y2="100%">
      <stop offset="0%" stop-color="#c4888a"/>
      <stop offset="100%" stop-color="#a06868"/>
    </linearGradient>
  </defs>

  <rect x="4" y="4" width="892" height="832" rx="16" fill="#1a1710" filter="url(#shadow)" clip-path="url(#cc)"/>

  <circle cx="38" cy="44" r="16" fill="#1DB954"/>
  <path d="M30 39 Q38 36 46 39" stroke="#fff" stroke-width="2.5" fill="none" stroke-linecap="round"/>
  <path d="M29 44 Q38 41 47 44" stroke="#fff" stroke-width="2.2" fill="none" stroke-linecap="round"/>
  <path d="M30 49 Q38 46.5 46 49" stroke="#fff" stroke-width="1.9" fill="none" stroke-linecap="round"/>
  <text x="64" y="51" font-family="'Helvetica Neue',Arial,sans-serif" font-size="17" font-weight="800" fill="#EFEBCE" letter-spacing="3">ON REPEAT</text>

  <rect x="4" y="80" width="892" height="672" fill="#EFEBCE"/>

  <text x="46" y="184" font-family="'Helvetica Neue',Arial,sans-serif" font-size="18" fill="#999" text-anchor="middle">1</text>
  <g transform="translate(72,137)">
    <rect width="80" height="80" rx="10" fill="url(#g1)" filter="url(#art-shadow)"/>
    <text x="40" y="42" font-family="Georgia,'Times New Roman',serif" font-size="46" fill="#000000" text-anchor="middle" dominant-baseline="central">♠</text>
  </g>
  <text x="172" y="170" font-family="'Helvetica Neue',Arial,sans-serif" font-size="22" font-weight="700" fill="#1a1710">Konsensya</text>
  <text x="172" y="198" font-family="'Helvetica Neue',Arial,sans-serif" font-size="17" fill="#777">IV OF SPADES</text>
  <a href="https://open.spotify.com/track/3ilfK8uTk4VB50GKtfKHTL" target="_blank">
    <circle cx="858" cy="177" r="26" fill="#8a8a7a"/>
    <polygon points="850,167 872,177 850,187" fill="#1a1710"/>
  </a>
  <line x1="28" y1="250" x2="876" y2="250" stroke="#00000012" stroke-width="1"/>

  <text x="46" y="350" font-family="'Helvetica Neue',Arial,sans-serif" font-size="18" fill="#999" text-anchor="middle">2</text>
  <g transform="translate(72,303)">
    <rect width="80" height="80" rx="10" fill="url(#g2)" filter="url(#art-shadow)"/>
    <text x="40" y="42" font-family="Georgia,'Times New Roman',serif" font-size="46" fill="#000000" text-anchor="middle" dominant-baseline="central">♠</text>
  </g>
  <text x="172" y="336" font-family="'Helvetica Neue',Arial,sans-serif" font-size="22" font-weight="700" fill="#1a1710">Tamis ng Pagkakamali</text>
  <text x="172" y="364" font-family="'Helvetica Neue',Arial,sans-serif" font-size="17" fill="#777">IV OF SPADES</text>
  <a href="https://open.spotify.com/track/0MNcBNDORXiWofBOhlBFAJ" target="_blank">
    <circle cx="858" cy="343" r="26" fill="#8a8a7a"/>
    <polygon points="850,333 872,343 850,353" fill="#1a1710"/>
  </a>
  <line x1="28" y1="416" x2="876" y2="416" stroke="#00000012" stroke-width="1"/>

  <text x="46" y="516" font-family="'Helvetica Neue',Arial,sans-serif" font-size="18" fill="#999" text-anchor="middle">3</text>
  <g transform="translate(72,469)">
    <rect width="80" height="80" rx="10" fill="url(#g3)" filter="url(#art-shadow)"/>
    <text x="40" y="42" font-family="Georgia,serif" font-size="38" text-anchor="middle" dominant-baseline="central">🎸</text>
  </g>
  <text x="172" y="502" font-family="'Helvetica Neue',Arial,sans-serif" font-size="22" font-weight="700" fill="#1a1710">Sweet Child O’ Mine</text>
  <text x="172" y="530" font-family="'Helvetica Neue',Arial,sans-serif" font-size="17" fill="#777">Guns N’ Roses</text>
  <a href="https://open.spotify.com/track/7o2CTH4ctstm8TNelqjb51" target="_blank">
    <circle cx="858" cy="509" r="26" fill="#8a8a7a"/>
    <polygon points="850,499 872,509 850,519" fill="#1a1710"/>
  </a>
  <line x1="28" y1="582" x2="876" y2="582" stroke="#00000012" stroke-width="1"/>

  <text x="46" y="682" font-family="'Helvetica Neue',Arial,sans-serif" font-size="18" fill="#999" text-anchor="middle">4</text>
  <g transform="translate(72,635)">
    <rect width="80" height="80" rx="10" fill="url(#g4)" filter="url(#art-shadow)"/>
    <text x="40" y="42" font-family="Georgia,'Times New Roman',serif" font-size="44" fill="#1a1710" text-anchor="middle" dominant-baseline="central" opacity="0.65">♪</text>
  </g>
  <text x="172" y="668" font-family="'Helvetica Neue',Arial,sans-serif" font-size="22" font-weight="700" fill="#1a1710">A Thousand Years</text>
  <text x="172" y="696" font-family="'Helvetica Neue',Arial,sans-serif" font-size="17" fill="#777">John Michael Howell, JVKE, ZVC</text>
  <a href="https://open.spotify.com/track/2AXbX8jCzUMTlY37BDKj6Q" target="_blank">
    <circle cx="858" cy="675" r="26" fill="#8a8a7a"/>
    <polygon points="850,665 872,675 850,685" fill="#1a1710"/>
  </a>

  <text x="28" y="818" font-family="'Helvetica Neue',Arial,sans-serif" font-size="15" fill="#A3A380">@dasMeds · on repeat</text>
  <text x="876" y="818" font-family="'Helvetica Neue',Arial,sans-serif" font-size="15" fill="#BB8588" text-anchor="end">open in spotify ↗</text>
</svg>
